<?xml version="1.0" encoding="utf-8"?>
<!-- Generator: Adobe Illustrator 15.1.0, SVG Export Plug-In . SVG Version: 6.00 Build 0)  -->
<!DOCTYPE svg PUBLIC "-//W3C//DTD SVG 1.1//EN" "http://www.w3.org/Graphics/SVG/1.1/DTD/svg11.dtd">
<svg version="1.1" id="Layer_1" xmlns="http://www.w3.org/2000/svg" xmlns:xlink="http://www.w3.org/1999/xlink" x="0px" y="0px"
	 width="80.639px" height="39.924px" viewBox="0 0 80.639 39.924" enable-background="new 0 0 80.639 39.924" xml:space="preserve">
<g enable-background="new    ">
	<path fill="#990000" d="M2.141,7.942c0-0.623,0.112-1.239,0.338-1.848c0.225-0.608,0.554-1.152,0.985-1.632
		c0.432-0.479,0.958-0.868,1.582-1.165c0.623-0.297,1.333-0.446,2.128-0.446c0.939,0,1.752,0.207,2.438,0.619
		s1.196,0.948,1.532,1.61l-1.524,1.05C9.485,5.843,9.322,5.601,9.13,5.404C8.938,5.208,8.732,5.052,8.511,4.937
		c-0.221-0.114-0.451-0.198-0.69-0.251c-0.24-0.053-0.475-0.079-0.705-0.079c-0.499,0-0.933,0.101-1.302,0.302
		s-0.676,0.463-0.92,0.784C4.651,6.014,4.466,6.377,4.342,6.785C4.217,7.192,4.155,7.598,4.155,8c0,0.45,0.072,0.884,0.216,1.302
		c0.144,0.417,0.347,0.783,0.611,1.1s0.58,0.57,0.949,0.762c0.369,0.192,0.774,0.288,1.215,0.288c0.23,0,0.469-0.029,0.719-0.086
		c0.249-0.058,0.486-0.149,0.712-0.273c0.225-0.125,0.434-0.285,0.625-0.482c0.191-0.196,0.345-0.434,0.46-0.711l1.625,0.935
		c-0.163,0.383-0.396,0.722-0.697,1.014c-0.302,0.292-0.643,0.539-1.021,0.74c-0.379,0.201-0.784,0.354-1.215,0.46
		c-0.431,0.105-0.853,0.158-1.265,0.158c-0.729,0-1.395-0.153-1.999-0.46s-1.124-0.707-1.56-1.2
		c-0.437-0.494-0.776-1.055-1.021-1.683S2.141,8.595,2.141,7.942z"/>
	<path fill="#990000" d="M16.881,13.191c-0.748,0-1.426-0.146-2.035-0.438c-0.609-0.293-1.131-0.681-1.567-1.165
		c-0.436-0.484-0.774-1.038-1.014-1.661s-0.359-1.261-0.359-1.912c0-0.681,0.127-1.333,0.381-1.956s0.604-1.174,1.05-1.653
		s0.976-0.86,1.589-1.144c0.614-0.282,1.28-0.424,1.999-0.424c0.738,0,1.412,0.15,2.021,0.452c0.608,0.303,1.129,0.698,1.56,1.187
		c0.432,0.489,0.767,1.045,1.007,1.668c0.239,0.624,0.359,1.257,0.359,1.898c0,0.681-0.125,1.33-0.374,1.948
		c-0.25,0.618-0.594,1.165-1.035,1.64c-0.441,0.475-0.969,0.854-1.582,1.136C18.266,13.05,17.6,13.191,16.881,13.191z M13.919,8.015
		c0,0.44,0.067,0.867,0.201,1.279s0.329,0.776,0.583,1.093s0.565,0.57,0.935,0.763c0.369,0.191,0.789,0.287,1.258,0.287
		c0.479,0,0.903-0.098,1.272-0.295c0.369-0.196,0.681-0.457,0.935-0.783c0.254-0.326,0.446-0.692,0.575-1.101
		c0.129-0.407,0.194-0.821,0.194-1.243c0-0.441-0.069-0.868-0.208-1.28s-0.335-0.776-0.589-1.093
		c-0.254-0.316-0.566-0.568-0.935-0.755c-0.369-0.187-0.784-0.28-1.244-0.28c-0.479,0-0.906,0.099-1.28,0.295
		s-0.686,0.455-0.935,0.776c-0.25,0.321-0.438,0.686-0.568,1.093C13.983,7.178,13.919,7.593,13.919,8.015z"/>
	<path fill="#990000" d="M23.395,13.119V2.909h1.984v8.47h5.206v1.74H23.395z"/>
	<path fill="#990000" d="M31.793,13.119V2.909h3.71c0.834,0,1.565,0.135,2.193,0.403c0.628,0.268,1.153,0.632,1.575,1.093
		c0.422,0.46,0.737,0.999,0.949,1.617C40.43,6.641,40.535,7.3,40.535,8c0,0.776-0.117,1.479-0.352,2.106
		c-0.235,0.628-0.573,1.165-1.014,1.61c-0.441,0.446-0.971,0.791-1.589,1.036c-0.618,0.244-1.311,0.366-2.078,0.366H31.793z
		 M38.537,8c0-0.489-0.067-0.939-0.201-1.352c-0.135-0.412-0.331-0.768-0.59-1.064s-0.578-0.527-0.957-0.69
		s-0.808-0.244-1.287-0.244h-1.726v6.729h1.726c0.489,0,0.923-0.086,1.302-0.259c0.378-0.172,0.695-0.409,0.949-0.712
		c0.254-0.302,0.448-0.658,0.583-1.071C38.47,8.925,38.537,8.479,38.537,8z"/>
	<path fill="#990000" d="M48.573,2.938H50.4l1.15,3.379l1.15-3.379h1.841l-1.74,4.645l1.295,3.264l2.89-7.938h2.157l-4.155,10.21
		H53.32l-1.77-4.285l-1.769,4.285h-1.668l-4.127-10.21h2.128l2.905,7.938l1.266-3.264L48.573,2.938z"/>
	<path fill="#990000" d="M62.22,2.909h1.755l3.882,10.21h-2.042l-0.948-2.545H61.3l-0.935,2.545h-2.042L62.22,2.909z M64.506,9.179
		l-1.409-4.012L61.63,9.179H64.506z"/>
	<path fill="#990000" d="M68.979,13.119V2.909h4.515c0.47,0,0.903,0.099,1.302,0.295c0.397,0.196,0.74,0.455,1.028,0.776
		c0.287,0.321,0.513,0.686,0.676,1.093c0.163,0.408,0.244,0.817,0.244,1.229c0,0.662-0.165,1.264-0.496,1.805
		c-0.331,0.542-0.779,0.933-1.345,1.172l2.33,3.84h-2.229l-2.085-3.423h-1.955v3.423H68.979z M70.963,7.957h2.487
		c0.182,0,0.353-0.043,0.511-0.13c0.158-0.086,0.295-0.203,0.41-0.353c0.114-0.148,0.206-0.323,0.272-0.524
		c0.067-0.201,0.101-0.417,0.101-0.647c0-0.239-0.038-0.46-0.114-0.661c-0.077-0.201-0.18-0.376-0.31-0.524
		c-0.13-0.149-0.278-0.264-0.445-0.346c-0.168-0.081-0.339-0.122-0.511-0.122h-2.401V7.957z"/>
</g>
<g enable-background="new    ">
	<path d="M14.056,28.457V18.396L9.587,26.18H8.879L4.41,18.396v10.061H3.202V16.205h1.243l4.78,8.387l4.814-8.387h1.225v12.252
		H14.056z"/>
	<path d="M23.305,27.456c0.771,0,1.412-0.146,1.924-0.439c0.512-0.294,0.92-0.679,1.225-1.156c0.305-0.478,0.518-1.021,0.638-1.631
		c0.121-0.609,0.181-1.226,0.181-1.847v-6.178h1.208v6.178c0,0.828-0.092,1.613-0.276,2.355c-0.184,0.742-0.48,1.396-0.889,1.959
		c-0.409,0.563-0.94,1.012-1.596,1.346s-1.456,0.5-2.398,0.5c-0.966,0-1.781-0.175-2.442-0.526
		c-0.662-0.351-1.194-0.813-1.596-1.389c-0.403-0.575-0.69-1.23-0.863-1.967s-0.259-1.496-0.259-2.278v-6.178h1.19v6.178
		c0,0.645,0.063,1.271,0.19,1.881c0.126,0.61,0.342,1.15,0.647,1.622s0.71,0.852,1.217,1.139
		C21.913,27.313,22.546,27.456,23.305,27.456z"/>
	<path d="M38.525,18.5c-0.345-0.391-0.805-0.707-1.38-0.948c-0.575-0.242-1.231-0.363-1.967-0.363c-1.081,0-1.869,0.205-2.364,0.613
		s-0.742,0.964-0.742,1.665c0,0.368,0.066,0.67,0.199,0.906c0.132,0.235,0.336,0.439,0.612,0.612
		c0.276,0.173,0.63,0.322,1.062,0.448c0.431,0.127,0.94,0.254,1.527,0.38c0.656,0.138,1.245,0.293,1.769,0.466
		c0.523,0.173,0.969,0.389,1.337,0.647s0.65,0.572,0.846,0.94s0.293,0.828,0.293,1.38c0,0.564-0.109,1.053-0.327,1.467
		c-0.219,0.414-0.523,0.76-0.915,1.036c-0.391,0.275-0.857,0.48-1.397,0.612c-0.541,0.132-1.133,0.198-1.777,0.198
		c-1.898,0-3.538-0.593-4.918-1.777l0.604-0.983c0.218,0.23,0.48,0.448,0.785,0.655c0.305,0.207,0.644,0.389,1.018,0.544
		c0.374,0.155,0.773,0.276,1.199,0.362c0.425,0.086,0.874,0.129,1.346,0.129c0.978,0,1.74-0.175,2.287-0.525
		c0.546-0.352,0.82-0.883,0.82-1.597c0-0.38-0.078-0.699-0.233-0.958s-0.388-0.482-0.699-0.673
		c-0.311-0.189-0.696-0.354-1.156-0.491c-0.46-0.139-0.996-0.276-1.605-0.414c-0.645-0.149-1.208-0.305-1.691-0.467
		c-0.483-0.16-0.892-0.362-1.226-0.604c-0.333-0.241-0.584-0.532-0.75-0.871c-0.167-0.34-0.25-0.757-0.25-1.251
		c0-0.563,0.106-1.067,0.319-1.511c0.212-0.442,0.515-0.811,0.906-1.104c0.391-0.294,0.851-0.519,1.38-0.674
		c0.529-0.155,1.116-0.232,1.76-0.232c0.816,0,1.544,0.124,2.183,0.371c0.639,0.247,1.217,0.595,1.734,1.044L38.525,18.5z"/>
	<path d="M50.069,27.387v1.07h-8.23V16.205h8.075v1.07h-6.867v4.417h5.987v1.019h-5.987v4.676H50.069z"/>
	<path d="M57.317,27.456c0.771,0,1.412-0.146,1.924-0.439c0.512-0.294,0.92-0.679,1.225-1.156s0.518-1.021,0.639-1.631
		s0.182-1.226,0.182-1.847v-6.178h1.208v6.178c0,0.828-0.093,1.613-0.276,2.355c-0.185,0.742-0.48,1.396-0.889,1.959
		s-0.94,1.012-1.597,1.346c-0.655,0.334-1.455,0.5-2.398,0.5c-0.966,0-1.78-0.175-2.441-0.526c-0.662-0.351-1.193-0.813-1.597-1.389
		c-0.402-0.575-0.689-1.23-0.862-1.967s-0.259-1.496-0.259-2.278v-6.178h1.19v6.178c0,0.645,0.063,1.271,0.19,1.881
		c0.126,0.61,0.342,1.15,0.646,1.622s0.71,0.852,1.217,1.139C55.924,27.313,56.557,27.456,57.317,27.456z"/>
	<path d="M76.229,28.457V18.396L71.76,26.18h-0.708l-4.469-7.783v10.061h-1.208V16.205h1.242l4.779,8.387l4.814-8.387h1.226v12.252
		H76.229z"/>
</g>
<g enable-background="new    ">
	<path fill="#990000" d="M4.694,32.121h0.441l2.206,5.31H6.787l-0.688-1.66H3.714l-0.681,1.66H2.473L4.694,32.121z M5.98,35.359
		L4.91,32.734l-1.084,2.625H5.98z"/>
	<path fill="#990000" d="M8.103,37.431v-5.31h2.198c0.229,0,0.44,0.049,0.632,0.146c0.192,0.097,0.358,0.225,0.498,0.381
		c0.139,0.157,0.249,0.336,0.329,0.535c0.08,0.199,0.12,0.401,0.12,0.605c0,0.22-0.038,0.43-0.112,0.632s-0.18,0.38-0.314,0.535
		c-0.135,0.154-0.295,0.278-0.482,0.373s-0.395,0.143-0.625,0.143h-1.72v1.959H8.103z M8.627,35.008h1.697
		c0.155,0,0.295-0.033,0.423-0.101c0.127-0.067,0.235-0.157,0.325-0.27c0.089-0.112,0.159-0.241,0.209-0.389s0.075-0.301,0.075-0.46
		c0-0.164-0.029-0.32-0.086-0.468c-0.057-0.146-0.134-0.275-0.231-0.385s-0.212-0.195-0.344-0.258
		c-0.132-0.063-0.271-0.094-0.415-0.094H8.627V35.008z"/>
	<path fill="#990000" d="M14.908,36.997c0.334,0,0.612-0.063,0.834-0.19c0.222-0.128,0.399-0.295,0.531-0.501
		c0.132-0.207,0.225-0.442,0.277-0.707c0.052-0.264,0.079-0.531,0.079-0.8v-2.678h0.523v2.678c0,0.358-0.04,0.699-0.12,1.021
		c-0.08,0.321-0.208,0.604-0.385,0.849c-0.177,0.244-0.408,0.438-0.692,0.583s-0.63,0.217-1.039,0.217
		c-0.419,0-0.771-0.075-1.058-0.228s-0.518-0.353-0.692-0.603c-0.174-0.249-0.299-0.533-0.374-0.853
		c-0.075-0.318-0.112-0.647-0.112-0.986v-2.678h0.516v2.678c0,0.279,0.027,0.551,0.083,0.814c0.055,0.265,0.148,0.499,0.28,0.703
		c0.132,0.204,0.308,0.369,0.527,0.493C14.305,36.935,14.579,36.997,14.908,36.997z"/>
	<path fill="#990000" d="M21.503,33.116c-0.149-0.17-0.349-0.307-0.598-0.411c-0.249-0.104-0.533-0.157-0.853-0.157
		c-0.468,0-0.81,0.089-1.024,0.266s-0.321,0.417-0.321,0.722c0,0.159,0.028,0.29,0.086,0.393c0.057,0.102,0.146,0.19,0.266,0.265
		c0.12,0.075,0.273,0.14,0.459,0.195c0.187,0.055,0.408,0.109,0.662,0.164c0.284,0.06,0.54,0.127,0.766,0.202
		c0.227,0.074,0.42,0.168,0.58,0.28s0.282,0.248,0.367,0.407c0.084,0.16,0.127,0.359,0.127,0.599c0,0.244-0.047,0.456-0.142,0.636
		c-0.095,0.179-0.227,0.329-0.396,0.448c-0.169,0.12-0.371,0.208-0.605,0.266s-0.491,0.086-0.77,0.086
		c-0.823,0-1.533-0.257-2.131-0.771l0.262-0.426c0.095,0.1,0.208,0.194,0.34,0.284c0.132,0.09,0.279,0.168,0.441,0.235
		s0.335,0.119,0.52,0.157c0.184,0.037,0.378,0.056,0.583,0.056c0.424,0,0.754-0.076,0.991-0.228
		c0.237-0.152,0.355-0.383,0.355-0.692c0-0.164-0.034-0.303-0.101-0.415c-0.067-0.111-0.168-0.209-0.303-0.291
		c-0.135-0.082-0.302-0.153-0.501-0.213c-0.2-0.061-0.431-0.12-0.695-0.18c-0.279-0.064-0.523-0.132-0.733-0.202
		c-0.209-0.069-0.387-0.157-0.531-0.262s-0.253-0.23-0.325-0.378c-0.072-0.146-0.108-0.327-0.108-0.542
		c0-0.244,0.046-0.462,0.139-0.654c0.092-0.191,0.223-0.352,0.393-0.479c0.169-0.127,0.369-0.225,0.598-0.291
		c0.229-0.067,0.483-0.102,0.763-0.102c0.354,0,0.669,0.054,0.946,0.161s0.527,0.258,0.751,0.452L21.503,33.116z"/>
	<path fill="#990000" d="M27.126,32.121v5.31H26.61v-2.482h-3.148v2.482h-0.523v-5.31h0.523v2.363h3.148v-2.363H27.126z"/>
	<path fill="#990000" d="M31.777,32.121h0.441l2.206,5.31h-0.553l-0.688-1.66h-2.385l-0.681,1.66h-0.561L31.777,32.121z
		 M33.063,35.359l-1.069-2.625l-1.084,2.625H33.063z"/>
	<path fill="#990000" d="M38.208,33.116c-0.149-0.17-0.349-0.307-0.598-0.411c-0.249-0.104-0.533-0.157-0.853-0.157
		c-0.468,0-0.81,0.089-1.024,0.266s-0.321,0.417-0.321,0.722c0,0.159,0.028,0.29,0.086,0.393c0.057,0.102,0.146,0.19,0.266,0.265
		c0.12,0.075,0.273,0.14,0.459,0.195c0.187,0.055,0.408,0.109,0.662,0.164c0.284,0.06,0.54,0.127,0.766,0.202
		c0.227,0.074,0.42,0.168,0.58,0.28s0.282,0.248,0.367,0.407c0.085,0.16,0.127,0.359,0.127,0.599c0,0.244-0.048,0.456-0.142,0.636
		c-0.096,0.179-0.228,0.329-0.397,0.448c-0.169,0.12-0.371,0.208-0.605,0.266s-0.491,0.086-0.77,0.086
		c-0.823,0-1.533-0.257-2.131-0.771l0.262-0.426c0.095,0.1,0.208,0.194,0.34,0.284c0.132,0.09,0.279,0.168,0.441,0.235
		s0.335,0.119,0.52,0.157c0.184,0.037,0.378,0.056,0.583,0.056c0.424,0,0.754-0.076,0.991-0.228
		c0.237-0.152,0.355-0.383,0.355-0.692c0-0.164-0.034-0.303-0.101-0.415c-0.067-0.111-0.168-0.209-0.303-0.291
		c-0.135-0.082-0.302-0.153-0.501-0.213c-0.2-0.061-0.431-0.12-0.695-0.18c-0.279-0.064-0.523-0.132-0.733-0.202
		c-0.209-0.069-0.387-0.157-0.531-0.262s-0.253-0.23-0.325-0.378c-0.072-0.146-0.108-0.327-0.108-0.542
		c0-0.244,0.046-0.462,0.139-0.654c0.092-0.191,0.223-0.352,0.393-0.479c0.169-0.127,0.369-0.225,0.598-0.291
		c0.229-0.067,0.483-0.102,0.763-0.102c0.354,0,0.669,0.054,0.946,0.161s0.527,0.258,0.751,0.452L38.208,33.116z"/>
	<path fill="#990000" d="M42.746,33.116c-0.149-0.17-0.349-0.307-0.598-0.411c-0.25-0.104-0.534-0.157-0.853-0.157
		c-0.469,0-0.811,0.089-1.024,0.266c-0.215,0.177-0.322,0.417-0.322,0.722c0,0.159,0.029,0.29,0.086,0.393
		c0.058,0.102,0.146,0.19,0.266,0.265c0.12,0.075,0.273,0.14,0.46,0.195c0.188,0.055,0.408,0.109,0.662,0.164
		c0.284,0.06,0.539,0.127,0.767,0.202c0.227,0.074,0.42,0.168,0.579,0.28s0.281,0.248,0.366,0.407
		c0.085,0.16,0.127,0.359,0.127,0.599c0,0.244-0.047,0.456-0.142,0.636c-0.095,0.179-0.227,0.329-0.396,0.448
		c-0.169,0.12-0.371,0.208-0.605,0.266s-0.491,0.086-0.771,0.086c-0.822,0-1.532-0.257-2.131-0.771l0.262-0.426
		c0.095,0.1,0.208,0.194,0.34,0.284c0.133,0.09,0.279,0.168,0.441,0.235s0.335,0.119,0.52,0.157
		c0.185,0.037,0.379,0.056,0.584,0.056c0.423,0,0.754-0.076,0.99-0.228c0.237-0.152,0.355-0.383,0.355-0.692
		c0-0.164-0.034-0.303-0.101-0.415c-0.067-0.111-0.169-0.209-0.304-0.291c-0.134-0.082-0.302-0.153-0.501-0.213
		c-0.199-0.061-0.431-0.12-0.695-0.18c-0.279-0.064-0.523-0.132-0.732-0.202c-0.21-0.069-0.387-0.157-0.531-0.262
		s-0.253-0.23-0.325-0.378c-0.072-0.146-0.108-0.327-0.108-0.542c0-0.244,0.046-0.462,0.139-0.654
		c0.092-0.191,0.223-0.352,0.393-0.479c0.169-0.127,0.368-0.225,0.598-0.291c0.229-0.067,0.483-0.102,0.763-0.102
		c0.354,0,0.67,0.054,0.946,0.161s0.527,0.258,0.751,0.452L42.746,33.116z"/>
	<path fill="#990000" d="M44.182,37.431v-5.31h0.523v5.31H44.182z"/>
	<path fill="#990000" d="M49.873,36.653c-0.494,0.543-1.063,0.814-1.705,0.814c-0.359,0-0.689-0.077-0.991-0.231
		s-0.563-0.359-0.785-0.613s-0.395-0.542-0.52-0.863c-0.125-0.322-0.187-0.652-0.187-0.991c0-0.354,0.061-0.692,0.183-1.017
		s0.293-0.609,0.513-0.856c0.219-0.247,0.479-0.443,0.777-0.591c0.299-0.146,0.626-0.221,0.979-0.221
		c0.259,0,0.496,0.029,0.711,0.086c0.214,0.058,0.404,0.138,0.571,0.239c0.167,0.103,0.312,0.225,0.434,0.366
		c0.122,0.143,0.226,0.299,0.311,0.468l-0.403,0.27c-0.175-0.329-0.401-0.571-0.681-0.726s-0.596-0.231-0.95-0.231
		c-0.294,0-0.56,0.062-0.796,0.187c-0.237,0.125-0.438,0.29-0.605,0.497s-0.296,0.444-0.386,0.711
		c-0.089,0.267-0.134,0.542-0.134,0.826c0,0.299,0.051,0.583,0.153,0.853c0.102,0.269,0.242,0.504,0.422,0.706
		s0.391,0.363,0.632,0.482c0.242,0.12,0.505,0.18,0.789,0.18c0.304,0,0.595-0.071,0.871-0.213c0.276-0.143,0.542-0.368,0.797-0.677
		v-0.883h-1.182v-0.403h1.622v2.609h-0.44V36.653z"/>
	<path fill="#990000" d="M51.913,33.094v4.337H51.39v-5.31h0.404l3.515,4.42v-4.412h0.523v5.302h-0.456L51.913,33.094z"/>
	<path fill="#990000" d="M61.866,37.431v-4.359l-1.937,3.372h-0.307l-1.938-3.372v4.359h-0.523v-5.31h0.539l2.071,3.635l2.086-3.635
		h0.531v5.31H61.866z"/>
	<path fill="#990000" d="M67.288,36.967v0.464h-3.567v-5.31h3.5v0.464h-2.977v1.914h2.595v0.441h-2.595v2.026H67.288z"/>
	<path fill="#990000" d="M68.798,33.094v4.337h-0.523v-5.31h0.404l3.515,4.42v-4.412h0.523v5.302h-0.456L68.798,33.094z"/>
	<path fill="#990000" d="M77.817,32.585h-1.893v4.846h-0.523v-4.846h-1.892v-0.464h4.308V32.585z"/>
</g>
</svg>
