<?xml version="1.0" encoding="utf-8"?>
<!-- Generator: Adobe Illustrator 15.1.0, SVG Export Plug-In . SVG Version: 6.00 Build 0)  -->
<!DOCTYPE svg PUBLIC "-//W3C//DTD SVG 1.1//EN" "http://www.w3.org/Graphics/SVG/1.1/DTD/svg11.dtd">
<svg version="1.1" id="Layer_1" xmlns="http://www.w3.org/2000/svg" xmlns:xlink="http://www.w3.org/1999/xlink" x="0px" y="0px"
	 width="1118.518px" height="720px" viewBox="0 0 1118.518 720" enable-background="new 0 0 1118.518 720" xml:space="preserve">
<rect x="0.395" fill="#222222" width="1118" height="720"/>
<polygon fill="#EEEEEE" points="477.395,415 477.395,125 367.395,125 367.395,261 333.375,261 329.099,78 224.691,78 222.892,155 
	200.395,155 200.395,125 88.395,125 88.395,261 200.395,261 200.395,208 221.653,208 216.092,446 72.395,446 72.395,644 
	477.395,644 477.395,446 337.698,446 334.847,324 367.395,324 367.395,415 "/>
<circle fill="#222222" cx="135.803" cy="183.938" r="14.814"/>
<g>
	<path fill="#EEEEEE" d="M130.773,192.58c0-0.589,0.052-1.183,0.156-1.781c0.104-0.598,0.308-1.192,0.611-1.781
		c0.303-0.589,0.736-1.157,1.3-1.703c0.563-0.546,1.313-1.062,2.249-1.547c0.502-0.26,1.027-0.516,1.573-0.767
		c0.546-0.251,1.048-0.533,1.508-0.845c0.459-0.312,0.836-0.663,1.131-1.053c0.294-0.39,0.442-0.845,0.442-1.365
		c0-0.329-0.074-0.654-0.221-0.975c-0.147-0.321-0.364-0.606-0.65-0.858c-0.286-0.251-0.642-0.455-1.066-0.611
		c-0.425-0.156-0.923-0.234-1.495-0.234c-0.572,0-1.083,0.083-1.534,0.247c-0.451,0.165-0.845,0.36-1.183,0.585
		c-0.338,0.226-0.628,0.464-0.871,0.715c-0.243,0.251-0.425,0.455-0.546,0.611l-1.17-1.274c0.104-0.104,0.303-0.294,0.598-0.572
		c0.294-0.277,0.68-0.555,1.157-0.832c0.477-0.277,1.036-0.524,1.677-0.741c0.641-0.217,1.36-0.325,2.158-0.325
		s1.508,0.108,2.132,0.325s1.152,0.516,1.586,0.897c0.433,0.381,0.763,0.819,0.988,1.313c0.225,0.494,0.338,1.01,0.338,1.547
		c0,0.711-0.156,1.326-0.468,1.846s-0.698,0.971-1.157,1.352c-0.459,0.382-0.949,0.707-1.469,0.975
		c-0.52,0.269-0.988,0.499-1.404,0.689c-0.555,0.243-1.097,0.516-1.625,0.819c-0.529,0.303-1.001,0.637-1.417,1.001
		c-0.416,0.364-0.759,0.771-1.027,1.222c-0.269,0.451-0.403,0.954-0.403,1.508h9.256v1.612H130.773z"/>
</g>
<circle fill="#222222" cx="274.803" cy="292.938" r="14.814"/>
<g>
	<path fill="#EEEEEE" d="M279.186,299.968v1.612h-8.814v-1.612h3.692V288.84c-0.139,0.208-0.377,0.434-0.715,0.676
		c-0.338,0.243-0.711,0.468-1.118,0.676c-0.408,0.208-0.828,0.382-1.261,0.52c-0.433,0.139-0.815,0.208-1.144,0.208v-1.716
		c0.399,0,0.836-0.113,1.313-0.338s0.927-0.485,1.352-0.78c0.425-0.294,0.784-0.572,1.079-0.832c0.294-0.26,0.459-0.433,0.494-0.52
		h1.82v13.234H279.186z"/>
</g>
<circle fill="#222222" cx="421.803" cy="277.938" r="14.814"/>
<g>
	<path fill="#EEEEEE" d="M424.547,277.777c1.144,0.191,2.058,0.711,2.743,1.56c0.685,0.85,1.027,1.898,1.027,3.146
		c0,0.78-0.143,1.495-0.429,2.145c-0.286,0.65-0.693,1.205-1.222,1.664c-0.529,0.459-1.162,0.814-1.898,1.066
		c-0.737,0.251-1.556,0.377-2.457,0.377c-1.317,0-2.47-0.264-3.458-0.793c-0.988-0.529-1.733-1.261-2.236-2.197l1.222-1.118
		c0.364,0.763,0.918,1.369,1.664,1.82c0.745,0.45,1.681,0.676,2.808,0.676c1.3,0,2.322-0.316,3.068-0.949
		c0.745-0.633,1.118-1.538,1.118-2.717c0-1.196-0.39-2.141-1.17-2.834c-0.78-0.693-1.907-1.04-3.38-1.04h-0.65v-1.508H422
		c1.334,0,2.357-0.308,3.068-0.923c0.71-0.615,1.066-1.417,1.066-2.405c0-0.52-0.095-0.979-0.286-1.378
		c-0.191-0.398-0.455-0.732-0.793-1.001c-0.338-0.269-0.737-0.472-1.196-0.611c-0.459-0.139-0.958-0.208-1.495-0.208
		c-0.988,0-1.859,0.221-2.613,0.663c-0.754,0.442-1.322,1.053-1.703,1.833l-1.144-1.092c0.208-0.451,0.502-0.862,0.884-1.235
		c0.381-0.373,0.814-0.689,1.3-0.949c0.485-0.26,1.022-0.463,1.612-0.611c0.589-0.147,1.196-0.221,1.82-0.221
		c0.797,0,1.529,0.113,2.197,0.338c0.667,0.226,1.244,0.542,1.729,0.949s0.862,0.897,1.131,1.469
		c0.269,0.572,0.403,1.205,0.403,1.898c0,0.52-0.078,1.018-0.234,1.495c-0.156,0.477-0.382,0.902-0.676,1.274
		c-0.295,0.373-0.654,0.685-1.079,0.936C425.565,277.548,425.084,277.708,424.547,277.777z"/>
</g>
<circle fill="#222222" cx="268.803" cy="552.938" r="14.814"/>
<g>
	<path fill="#EEEEEE" d="M270.244,561.215v-4.628h-8.658v-1.56l9.23-11.961h1.196v11.908h2.288v1.612h-2.288v4.628H270.244z
		 M263.458,554.975h6.968v-9.125L263.458,554.975z"/>
</g>
<g>
	<rect x="573.215" y="263.124" fill="none" width="495.18" height="495.05"/>
	<path fill="#CB2027" d="M590.673,293.138v2.666h-14.577v-2.666h6.106v-18.404c-0.23,0.344-0.624,0.717-1.183,1.118
		c-0.56,0.402-1.176,0.774-1.85,1.118c-0.674,0.344-1.369,0.631-2.085,0.86c-0.717,0.23-1.348,0.344-1.893,0.344v-2.838
		c0.659,0,1.383-0.187,2.172-0.559c0.788-0.373,1.533-0.802,2.236-1.29c0.702-0.487,1.297-0.946,1.784-1.376
		c0.487-0.43,0.76-0.716,0.817-0.86h3.01v21.887H590.673z"/>
	<path fill="#EEEEEE" d="M605.378,285.441v-2.709h12.556v2.709H605.378z"/>
	<path fill="#EEEEEE" d="M634.696,292.192h3.023v-24.208h-3.023v-4.01h10.078l10.1,27.484l10.225-27.484h9.554v4.01h-3.003v24.208
		h3.003v3.611h-10.33v-3.611h3.401v-24.439l-11.128,28.051h-3.569L641.75,267.69v24.502h3.275v3.611h-10.33V292.192z"/>
	<path fill="#EEEEEE" d="M692.542,293.788c-0.826,0.77-1.74,1.4-2.74,1.89c-1.001,0.49-2.139,0.735-3.412,0.735
		c-1.063,0-2.04-0.168-2.929-0.504c-0.89-0.336-1.655-0.794-2.3-1.375c-0.644-0.581-1.144-1.256-1.501-2.026
		c-0.356-0.77-0.535-1.588-0.535-2.457c0-0.924,0.137-1.743,0.409-2.457c0.273-0.714,0.637-1.333,1.092-1.858
		c0.455-0.524,0.987-0.966,1.596-1.322c0.609-0.357,1.246-0.644,1.911-0.861c0.664-0.217,1.344-0.371,2.036-0.462
		c0.693-0.091,1.354-0.136,1.984-0.136c1.008,0,1.854,0.032,2.541,0.094c0.686,0.063,1.309,0.151,1.868,0.263l0.021-1.785
		c0-0.77-0.111-1.438-0.336-2.005c-0.224-0.566-0.538-1.036-0.944-1.406c-0.406-0.371-0.893-0.647-1.459-0.83
		c-0.567-0.182-1.2-0.273-1.9-0.273c-0.658,0-1.288,0.045-1.89,0.137c-0.602,0.091-1.165,0.21-1.69,0.356
		c-0.524,0.147-1.008,0.315-1.448,0.504c-0.441,0.189-0.815,0.389-1.123,0.599l-1.281-2.708c0.518-0.336,1.085-0.647,1.701-0.934
		c0.615-0.287,1.263-0.532,1.941-0.735c0.679-0.203,1.372-0.364,2.079-0.482c0.706-0.119,1.403-0.179,2.089-0.179
		c1.26,0,2.394,0.15,3.401,0.451c1.008,0.301,1.861,0.767,2.562,1.396s1.238,1.431,1.617,2.404c0.377,0.973,0.566,2.138,0.566,3.496
		l-0.021,10.876h2.415v3.611h-6.319V293.788z M687.25,293.137c0.518,0,1.035-0.063,1.553-0.189c0.519-0.126,1.008-0.297,1.471-0.514
		c0.461-0.217,0.889-0.469,1.28-0.756c0.392-0.287,0.721-0.584,0.987-0.893l0.021-4.913h-4.535c-0.756,0-1.445,0.084-2.068,0.252
		s-1.162,0.413-1.616,0.735c-0.455,0.322-0.809,0.721-1.061,1.197c-0.252,0.476-0.378,1.022-0.378,1.638
		c0,0.574,0.104,1.074,0.315,1.501c0.209,0.427,0.507,0.784,0.892,1.071c0.385,0.287,0.844,0.504,1.376,0.65
		C686.018,293.064,686.606,293.137,687.25,293.137z"/>
	<path fill="#EEEEEE" d="M703.102,274.052h7.097v18.141h3.275v3.611h-10.33v-3.611h3.107v-14.529h-3.149V274.052z M705.516,266.346
		c0-0.364,0.074-0.71,0.221-1.039c0.147-0.329,0.343-0.616,0.588-0.861c0.245-0.245,0.535-0.44,0.871-0.588
		c0.336-0.146,0.693-0.22,1.071-0.22c0.364,0,0.71,0.074,1.039,0.22c0.329,0.147,0.616,0.343,0.861,0.588
		c0.244,0.245,0.44,0.532,0.588,0.861c0.146,0.329,0.22,0.675,0.22,1.039c0,0.378-0.073,0.735-0.22,1.071
		c-0.147,0.336-0.344,0.633-0.588,0.892c-0.245,0.259-0.532,0.462-0.861,0.609c-0.329,0.146-0.675,0.22-1.039,0.22
		c-0.378,0-0.735-0.074-1.071-0.22c-0.336-0.147-0.626-0.35-0.871-0.609c-0.245-0.259-0.44-0.556-0.588-0.892
		C705.59,267.081,705.516,266.724,705.516,266.346z"/>
	<path fill="#EEEEEE" d="M731.384,292.192h3.065v-9.931c0-1.666-0.424-2.929-1.271-3.79c-0.847-0.86-2.061-1.291-3.643-1.291
		c-0.91,0-1.827,0.217-2.751,0.651c-0.924,0.434-1.798,0.973-2.624,1.617v12.745h3.065v3.611h-10.162v-3.611h3.023v-14.529h-3.023
		v-3.611h6.929v2.562h0.042c0.462-0.406,0.955-0.791,1.48-1.155c0.524-0.364,1.074-0.679,1.648-0.945
		c0.573-0.266,1.172-0.476,1.795-0.63c0.622-0.154,1.277-0.231,1.963-0.231c1.162,0,2.212,0.161,3.149,0.483
		c0.938,0.322,1.735,0.812,2.394,1.47c0.658,0.658,1.165,1.501,1.522,2.53c0.356,1.029,0.535,2.244,0.535,3.643v10.414h3.023v3.611
		h-10.162V292.192z"/>
	<path fill="#EEEEEE" d="M778.416,263.974h10.33v3.611h-3.023v24.607h3.023v3.611h-10.33v-3.611h3.191V280.75h-18.413v11.443h3.191
		v3.611h-10.33v-3.611h3.023v-24.607h-3.023v-3.611h10.33v3.611h-3.191v9.637h18.413v-9.637h-3.191V263.974z"/>
	<path fill="#EEEEEE" d="M806.635,293.788c-0.826,0.77-1.74,1.4-2.74,1.89c-1.001,0.49-2.139,0.735-3.412,0.735
		c-1.063,0-2.04-0.168-2.929-0.504c-0.89-0.336-1.655-0.794-2.3-1.375c-0.644-0.581-1.144-1.256-1.501-2.026
		c-0.356-0.77-0.535-1.588-0.535-2.457c0-0.924,0.137-1.743,0.409-2.457c0.273-0.714,0.637-1.333,1.092-1.858
		c0.455-0.524,0.987-0.966,1.596-1.322c0.609-0.357,1.246-0.644,1.911-0.861c0.664-0.217,1.344-0.371,2.036-0.462
		c0.693-0.091,1.354-0.136,1.984-0.136c1.008,0,1.854,0.032,2.541,0.094c0.686,0.063,1.309,0.151,1.868,0.263l0.021-1.785
		c0-0.77-0.111-1.438-0.336-2.005c-0.224-0.566-0.538-1.036-0.944-1.406c-0.406-0.371-0.893-0.647-1.459-0.83
		c-0.567-0.182-1.2-0.273-1.9-0.273c-0.658,0-1.288,0.045-1.89,0.137c-0.602,0.091-1.165,0.21-1.69,0.356
		c-0.524,0.147-1.008,0.315-1.448,0.504c-0.441,0.189-0.815,0.389-1.123,0.599l-1.281-2.708c0.518-0.336,1.085-0.647,1.701-0.934
		c0.615-0.287,1.263-0.532,1.941-0.735c0.679-0.203,1.372-0.364,2.079-0.482c0.706-0.119,1.403-0.179,2.089-0.179
		c1.26,0,2.394,0.15,3.401,0.451c1.008,0.301,1.861,0.767,2.562,1.396s1.238,1.431,1.617,2.404c0.377,0.973,0.566,2.138,0.566,3.496
		l-0.021,10.876h2.415v3.611h-6.319V293.788z M801.344,293.137c0.518,0,1.035-0.063,1.553-0.189
		c0.519-0.126,1.008-0.297,1.471-0.514c0.461-0.217,0.889-0.469,1.28-0.756c0.392-0.287,0.721-0.584,0.987-0.893l0.021-4.913h-4.535
		c-0.756,0-1.445,0.084-2.068,0.252s-1.162,0.413-1.616,0.735c-0.455,0.322-0.809,0.721-1.061,1.197
		c-0.252,0.476-0.378,1.022-0.378,1.638c0,0.574,0.104,1.074,0.315,1.501c0.209,0.427,0.507,0.784,0.892,1.071
		c0.385,0.287,0.844,0.504,1.376,0.65C800.112,293.064,800.7,293.137,801.344,293.137z"/>
	<path fill="#EEEEEE" d="M817.196,263.134h7.055v29.059h3.275v3.611h-10.33v-3.611h3.149v-25.447h-3.149V263.134z"/>
	<path fill="#EEEEEE" d="M831.179,263.134h7.055v29.059h3.275v3.611h-10.33v-3.611h3.149v-25.447h-3.149V263.134z"/>
	<path fill="#EEEEEE" d="M843.651,274.052h6.887v3.611h-1.008l3.801,13.878l5.207-17.49h3.275l4.976,17.448l3.968-13.836h-1.26
		v-3.611h6.887v3.611h-1.868l-5.963,18.477h-3.611l-4.935-17.364l-4.912,17.364h-3.654l-5.92-18.477h-1.869V274.052z"/>
	<path fill="#EEEEEE" d="M892.551,293.788c-0.826,0.77-1.74,1.4-2.74,1.89c-1.001,0.49-2.139,0.735-3.412,0.735
		c-1.063,0-2.04-0.168-2.929-0.504c-0.89-0.336-1.655-0.794-2.3-1.375c-0.644-0.581-1.144-1.256-1.501-2.026
		c-0.356-0.77-0.535-1.588-0.535-2.457c0-0.924,0.137-1.743,0.409-2.457c0.273-0.714,0.637-1.333,1.092-1.858
		c0.455-0.524,0.987-0.966,1.596-1.322c0.609-0.357,1.246-0.644,1.911-0.861c0.664-0.217,1.344-0.371,2.036-0.462
		c0.693-0.091,1.354-0.136,1.984-0.136c1.008,0,1.854,0.032,2.541,0.094c0.686,0.063,1.309,0.151,1.868,0.263l0.021-1.785
		c0-0.77-0.111-1.438-0.336-2.005c-0.224-0.566-0.538-1.036-0.944-1.406c-0.406-0.371-0.893-0.647-1.459-0.83
		c-0.567-0.182-1.2-0.273-1.9-0.273c-0.658,0-1.288,0.045-1.89,0.137c-0.602,0.091-1.165,0.21-1.69,0.356
		c-0.524,0.147-1.008,0.315-1.448,0.504c-0.441,0.189-0.815,0.389-1.123,0.599l-1.281-2.708c0.518-0.336,1.085-0.647,1.701-0.934
		c0.615-0.287,1.263-0.532,1.941-0.735c0.679-0.203,1.372-0.364,2.079-0.482c0.706-0.119,1.403-0.179,2.089-0.179
		c1.26,0,2.394,0.15,3.401,0.451c1.008,0.301,1.861,0.767,2.562,1.396s1.238,1.431,1.617,2.404c0.377,0.973,0.566,2.138,0.566,3.496
		l-0.021,10.876h2.415v3.611h-6.319V293.788z M887.26,293.137c0.518,0,1.035-0.063,1.553-0.189c0.519-0.126,1.008-0.297,1.471-0.514
		c0.461-0.217,0.889-0.469,1.28-0.756c0.392-0.287,0.721-0.584,0.987-0.893l0.021-4.913h-4.535c-0.756,0-1.445,0.084-2.068,0.252
		s-1.162,0.413-1.616,0.735c-0.455,0.322-0.809,0.721-1.061,1.197c-0.252,0.476-0.378,1.022-0.378,1.638
		c0,0.574,0.104,1.074,0.315,1.501c0.209,0.427,0.507,0.784,0.892,1.071c0.385,0.287,0.844,0.504,1.376,0.65
		C886.028,293.064,886.616,293.137,887.26,293.137z"/>
	<path fill="#EEEEEE" d="M901.831,274.052h8.252v3.611H907.5l5.102,13.878l5.333-13.878h-2.562v-3.611h8.252v3.611h-2.247
		l-9.679,24.418h2.98v3.611h-8.775v-3.611h2.645l2.311-5.984l-7.266-18.435h-1.764V274.052z"/>
	<path fill="#CB2027" d="M575.107,347.404c0-0.974,0.086-1.957,0.259-2.945c0.172-0.989,0.508-1.971,1.01-2.946
		c0.502-0.974,1.219-1.914,2.15-2.816s2.172-1.755,3.72-2.559c0.831-0.43,1.698-0.853,2.602-1.269
		c0.902-0.415,1.733-0.881,2.494-1.397c0.759-0.516,1.382-1.096,1.87-1.741c0.487-0.645,0.73-1.397,0.73-2.258
		c0-0.544-0.122-1.082-0.365-1.612c-0.244-0.53-0.602-1.003-1.075-1.419c-0.473-0.416-1.061-0.752-1.763-1.011
		c-0.703-0.258-1.526-0.387-2.473-0.387c-0.945,0-1.792,0.136-2.537,0.408c-0.745,0.273-1.397,0.595-1.956,0.968
		c-0.56,0.373-1.039,0.767-1.44,1.183c-0.402,0.416-0.703,0.752-0.903,1.01l-1.935-2.107c0.172-0.172,0.501-0.487,0.988-0.946
		c0.487-0.458,1.125-0.917,1.914-1.376c0.788-0.458,1.713-0.867,2.773-1.225s2.25-0.538,3.569-0.538
		c1.317,0,2.493,0.179,3.525,0.538s1.906,0.853,2.623,1.483c0.717,0.631,1.262,1.354,1.634,2.171c0.373,0.817,0.56,1.67,0.56,2.559
		c0,1.176-0.258,2.193-0.774,3.053c-0.516,0.86-1.154,1.606-1.913,2.236c-0.76,0.631-1.569,1.168-2.43,1.612
		c-0.86,0.445-1.634,0.824-2.322,1.14c-0.918,0.402-1.813,0.853-2.688,1.354c-0.875,0.502-1.655,1.053-2.343,1.655
		c-0.688,0.602-1.255,1.276-1.699,2.021c-0.444,0.746-0.666,1.577-0.666,2.494h15.308v2.666H575.107z"/>
	<path fill="#EEEEEE" d="M609.377,337.041v-2.709h12.556v2.709H609.377z"/>
	<path fill="#EEEEEE" d="M638.696,343.792h3.023v-24.208h-3.023v-4.01h10.078l10.099,27.484l10.226-27.484h9.553v4.01h-3.002v24.208
		h3.002v3.611h-10.33v-3.611h3.401v-24.439l-11.128,28.051h-3.569L645.75,319.29v24.502h3.275v3.611h-10.33V343.792z"/>
	<path fill="#EEEEEE" d="M699.458,331.447c-0.588-1.05-1.333-1.819-2.236-2.31c-0.902-0.49-1.949-0.735-3.139-0.735
		c-0.91,0-1.764,0.189-2.562,0.567s-1.494,0.917-2.089,1.617c-0.596,0.7-1.064,1.55-1.407,2.551c-0.343,1-0.515,2.117-0.515,3.349
		c0,1.218,0.172,2.317,0.515,3.296c0.343,0.98,0.815,1.816,1.417,2.509c0.603,0.692,1.299,1.225,2.09,1.596
		c0.79,0.371,1.641,0.556,2.551,0.556c1.344,0,2.513-0.326,3.506-0.976c0.994-0.651,1.785-1.606,2.373-2.866l3.233,1.596
		c-0.42,0.896-0.938,1.701-1.554,2.415s-1.313,1.323-2.089,1.827c-0.777,0.504-1.631,0.893-2.562,1.165
		c-0.932,0.273-1.914,0.41-2.95,0.41c-1.512,0-2.908-0.284-4.188-0.85c-1.281-0.567-2.387-1.361-3.317-2.383
		c-0.932-1.021-1.655-2.239-2.173-3.653c-0.519-1.414-0.777-2.96-0.777-4.64s0.273-3.226,0.818-4.64
		c0.547-1.414,1.295-2.628,2.247-3.643c0.952-1.015,2.064-1.809,3.339-2.383c1.273-0.574,2.638-0.861,4.094-0.861
		c1.372,0,2.67,0.238,3.895,0.714c1.225,0.476,2.299,1.197,3.223,2.163h2.205v3.611H699.458z"/>
	<path fill="#EEEEEE" d="M730.721,323.972c-0.938-1.596-2.181-2.848-3.728-3.758c-1.547-0.91-3.271-1.365-5.175-1.365
		c-1.624,0-3.107,0.343-4.451,1.029c-1.344,0.686-2.496,1.606-3.454,2.761c-0.959,1.154-1.704,2.491-2.236,4.01
		c-0.532,1.519-0.798,3.118-0.798,4.798c0,1.988,0.294,3.748,0.882,5.28c0.588,1.533,1.354,2.807,2.299,3.821
		c0.945,1.015,2.068,1.862,3.37,2.541c1.302,0.679,2.765,1.018,4.389,1.018c2.211,0,4.136-0.536,5.773-1.606
		c1.638-1.071,3.037-2.831,4.199-5.281l3.695,1.743c-0.532,1.512-1.435,2.971-2.709,4.378c-1.273,1.406-2.845,2.54-4.713,3.401
		c-1.869,0.86-3.938,1.291-6.205,1.291c-2.169,0-4.164-0.409-5.983-1.229c-1.819-0.818-3.44-1.984-4.86-3.496
		c-1.421-1.512-2.506-3.303-3.255-5.375c-0.749-2.071-1.123-4.234-1.123-6.488c0-2.268,0.374-4.409,1.123-6.425
		s1.799-3.769,3.149-5.26c1.351-1.49,2.961-2.666,4.829-3.527c1.869-0.86,3.896-1.291,6.079-1.291c1.945,0,3.625,0.276,5.039,0.829
		c1.413,0.553,2.613,1.211,3.601,1.974c0.986,0.763,1.837,1.593,2.551,2.488h2.226v3.737H730.721z"/>
	<path fill="#EEEEEE" d="M751.696,345.388c-0.826,0.77-1.74,1.4-2.74,1.89c-1.001,0.49-2.139,0.735-3.412,0.735
		c-1.063,0-2.04-0.168-2.929-0.504c-0.89-0.336-1.655-0.794-2.3-1.375c-0.644-0.581-1.144-1.256-1.501-2.026
		c-0.356-0.77-0.535-1.588-0.535-2.457c0-0.924,0.137-1.743,0.409-2.457c0.273-0.714,0.637-1.333,1.092-1.858
		c0.455-0.525,0.987-0.966,1.596-1.323c0.609-0.356,1.246-0.644,1.911-0.86c0.664-0.217,1.344-0.371,2.036-0.462
		c0.693-0.091,1.354-0.137,1.984-0.137c1.008,0,1.854,0.031,2.541,0.095c0.686,0.063,1.309,0.15,1.868,0.262l0.021-1.785
		c0-0.77-0.111-1.438-0.336-2.005c-0.224-0.567-0.538-1.036-0.944-1.407c-0.406-0.371-0.893-0.647-1.459-0.829
		c-0.567-0.182-1.2-0.273-1.9-0.273c-0.658,0-1.288,0.045-1.89,0.136c-0.602,0.091-1.165,0.21-1.69,0.357
		c-0.524,0.146-1.008,0.314-1.448,0.504c-0.441,0.188-0.815,0.388-1.123,0.598l-1.281-2.708c0.518-0.336,1.085-0.647,1.701-0.935
		c0.615-0.287,1.263-0.532,1.941-0.734c0.679-0.203,1.372-0.364,2.079-0.483c0.706-0.119,1.403-0.178,2.089-0.178
		c1.26,0,2.394,0.15,3.401,0.452c1.008,0.301,1.861,0.766,2.562,1.396s1.238,1.431,1.617,2.404c0.377,0.973,0.566,2.139,0.566,3.496
		l-0.021,10.876h2.415v3.611h-6.319V345.388z M746.405,344.737c0.518,0,1.035-0.063,1.553-0.189
		c0.519-0.126,1.008-0.297,1.471-0.515c0.461-0.217,0.889-0.469,1.28-0.756c0.392-0.287,0.721-0.584,0.987-0.892l0.021-4.913h-4.535
		c-0.756,0-1.445,0.084-2.068,0.252s-1.162,0.413-1.616,0.735c-0.455,0.322-0.809,0.721-1.061,1.197
		c-0.252,0.476-0.378,1.022-0.378,1.638c0,0.574,0.104,1.074,0.315,1.501c0.209,0.427,0.507,0.784,0.892,1.07
		c0.385,0.287,0.844,0.504,1.376,0.651C745.172,344.664,745.76,344.737,746.405,344.737z"/>
	<path fill="#EEEEEE" d="M778.067,330.25h-3.99v-1.344c-0.461,0-0.934,0.087-1.417,0.262c-0.482,0.175-0.935,0.441-1.354,0.798
		c-0.42,0.357-0.787,0.812-1.102,1.365c-0.315,0.553-0.543,1.207-0.683,1.963v10.498h3.695v3.611h-10.792v-3.611h3.002l0.021-14.529
		h-3.023v-3.611h6.949v3.002c0.252-0.448,0.536-0.864,0.851-1.25c0.315-0.385,0.665-0.721,1.05-1.008
		c0.385-0.287,0.812-0.511,1.281-0.672c0.469-0.161,0.977-0.241,1.521-0.241c0.729,0,1.414,0,2.059,0
		c0.644,0,1.287,0.014,1.932,0.042V330.25z"/>
	<path fill="#EEEEEE" d="M788.879,325.652h5.102v3.17h-5.144l-0.063,12.556c0,0.854,0.099,1.547,0.295,2.079
		c0.195,0.532,0.511,0.899,0.944,1.103c0.434,0.203,0.924,0.304,1.47,0.304c0.588,0,1.105-0.052,1.554-0.158
		c0.448-0.104,0.938-0.283,1.47-0.535l0.902,2.625c-0.672,0.35-1.378,0.626-2.12,0.83c-0.742,0.203-1.616,0.304-2.624,0.304
		c-0.952,0-1.782-0.116-2.488-0.346c-0.707-0.231-1.302-0.62-1.785-1.166c-0.482-0.546-0.843-1.277-1.081-2.194
		c-0.238-0.917-0.356-2.061-0.356-3.433l0.063-11.968h-3.465v-3.17h3.507v-5.207l3.821-1.806V325.652z"/>
	<path fill="#EEEEEE" d="M798.874,314.734h6.887v13.312h0.126c0.392-0.392,0.843-0.759,1.354-1.103
		c0.511-0.343,1.046-0.64,1.605-0.892c0.561-0.252,1.142-0.448,1.743-0.588c0.602-0.14,1.231-0.21,1.89-0.21
		c1.162,0,2.212,0.161,3.149,0.483c0.938,0.322,1.735,0.812,2.394,1.47c0.658,0.658,1.165,1.501,1.522,2.53
		c0.356,1.028,0.535,2.243,0.535,3.643v10.414h3.275v3.611h-10.33v-3.611h2.981v-9.931c0-1.666-0.424-2.929-1.271-3.79
		c-0.847-0.861-2.061-1.292-3.643-1.292c-0.896,0-1.806,0.213-2.729,0.64c-0.924,0.427-1.792,0.963-2.604,1.606v12.766h3.149v3.611
		h-10.33v-3.611h3.275v-25.447h-2.981V314.734z"/>
	<path fill="#EEEEEE" d="M825.559,325.652h8.252v3.611h-2.582l5.102,13.878l5.333-13.878h-2.562v-3.611h8.252v3.611h-2.247
		l-9.679,24.418h2.98v3.611h-8.775v-3.611h2.645l2.311-5.984l-7.266-18.435h-1.764V325.652z"/>
	<path fill="#EEEEEE" d="M851.532,325.652h7.097v18.141h3.275v3.611h-10.33v-3.611h3.107v-14.529h-3.149V325.652z M853.946,317.946
		c0-0.364,0.074-0.71,0.221-1.04c0.147-0.329,0.343-0.616,0.588-0.86c0.245-0.245,0.535-0.441,0.871-0.588
		c0.336-0.147,0.693-0.221,1.071-0.221c0.364,0,0.71,0.073,1.039,0.221c0.329,0.146,0.616,0.343,0.861,0.588
		c0.244,0.245,0.44,0.532,0.588,0.86c0.146,0.329,0.22,0.676,0.22,1.04c0,0.378-0.073,0.735-0.22,1.071
		c-0.147,0.336-0.344,0.633-0.588,0.893c-0.245,0.259-0.532,0.462-0.861,0.608c-0.329,0.147-0.675,0.221-1.039,0.221
		c-0.378,0-0.735-0.073-1.071-0.221c-0.336-0.146-0.626-0.35-0.871-0.608c-0.245-0.259-0.44-0.557-0.588-0.893
		C854.02,318.681,853.946,318.324,853.946,317.946z"/>
	<path fill="#EEEEEE" d="M877.641,329.988c-0.273-0.413-0.627-0.749-1.061-1.008c-0.434-0.259-0.917-0.448-1.449-0.567
		c-0.531-0.119-1.049-0.178-1.553-0.178c-0.561,0-1.075,0.063-1.544,0.189s-0.871,0.308-1.207,0.546
		c-0.336,0.238-0.599,0.528-0.787,0.871c-0.189,0.343-0.284,0.725-0.284,1.145c0,0.728,0.221,1.305,0.662,1.732
		c0.44,0.427,1.179,0.822,2.215,1.186l4.178,1.47c1.792,0.602,3.101,1.421,3.927,2.457c0.826,1.036,1.239,2.275,1.239,3.716
		c0,0.966-0.193,1.851-0.578,2.656c-0.385,0.805-0.931,1.491-1.638,2.058c-0.707,0.567-1.557,1.008-2.551,1.323
		c-0.994,0.314-2.1,0.472-3.317,0.472c-1.693,0-3.072-0.273-4.137-0.819c-1.063-0.546-1.882-1.267-2.456-2.163h-2.184v-3.611h4.347
		c0,0.602,0.129,1.116,0.388,1.543c0.259,0.427,0.602,0.773,1.029,1.039c0.427,0.266,0.909,0.462,1.448,0.588
		s1.089,0.189,1.648,0.189c0.546,0,1.07-0.066,1.574-0.2c0.504-0.133,0.948-0.329,1.334-0.588c0.385-0.259,0.689-0.57,0.913-0.934
		c0.224-0.364,0.336-0.777,0.336-1.239c0-0.7-0.228-1.294-0.683-1.785c-0.455-0.49-1.229-0.931-2.32-1.323l-4.156-1.554
		c-1.694-0.602-2.95-1.368-3.77-2.299c-0.818-0.931-1.229-2.096-1.229-3.496c0-0.924,0.172-1.777,0.515-2.562
		c0.343-0.784,0.84-1.459,1.491-2.026c0.65-0.566,1.445-1.011,2.383-1.333c0.938-0.322,2.009-0.483,3.213-0.483
		c1.553,0,2.855,0.217,3.904,0.651c1.051,0.434,1.995,1.176,2.835,2.226h2.036v3.611h-4.304
		C878.05,330.901,877.914,330.4,877.641,329.988z"/>
	<path fill="#EEEEEE" d="M886.344,325.652h6.929v2.541h0.042c0.476-0.406,0.977-0.788,1.501-1.144
		c0.525-0.357,1.074-0.668,1.648-0.935c0.574-0.266,1.172-0.476,1.795-0.63c0.623-0.154,1.271-0.231,1.942-0.231
		c1.567,0,2.918,0.291,4.053,0.872c1.133,0.581,2.008,1.487,2.624,2.719c0.532-0.476,1.092-0.935,1.68-1.375
		c0.588-0.441,1.2-0.822,1.837-1.145c0.637-0.322,1.306-0.581,2.006-0.777c0.699-0.196,1.428-0.294,2.184-0.294
		c1.176,0,2.232,0.161,3.17,0.483c0.938,0.322,1.735,0.812,2.394,1.47c0.658,0.658,1.158,1.501,1.501,2.53
		c0.343,1.028,0.515,2.243,0.515,3.643v10.414h3.023v3.611h-10.162v-3.611h3.065v-9.931c0-1.666-0.42-2.929-1.26-3.79
		c-0.84-0.861-2.051-1.292-3.633-1.292c-0.938,0-1.896,0.224-2.876,0.672c-0.979,0.448-1.819,1.015-2.52,1.701v12.64h3.003v3.611
		h-10.142v-3.611h3.065v-9.931c0-1.666-0.424-2.929-1.271-3.79c-0.847-0.861-2.061-1.292-3.643-1.292
		c-0.91,0-1.827,0.217-2.751,0.651c-0.924,0.434-1.798,0.973-2.624,1.617v12.745h3.065v3.611h-10.162v-3.611h3.023v-14.529h-3.023
		V325.652z"/>
	<path fill="#EEEEEE" d="M939.696,315.574h13.248c1.414,0,2.719,0.186,3.916,0.557c1.196,0.371,2.232,0.917,3.107,1.638
		c0.874,0.721,1.557,1.62,2.047,2.698c0.49,1.078,0.734,2.317,0.734,3.716c0,0.798-0.144,1.585-0.43,2.362
		c-0.287,0.776-0.687,1.498-1.197,2.162c-0.511,0.665-1.116,1.257-1.816,1.774c-0.699,0.518-1.462,0.917-2.288,1.197
		c0.35,0.154,0.703,0.375,1.061,0.662c0.356,0.287,0.692,0.637,1.008,1.05c0.314,0.413,0.602,0.882,0.86,1.406
		c0.259,0.525,0.466,1.089,0.619,1.69l1.764,6.929h2.751l0.042,3.989h-6.193l-2.373-9.679c-0.434-1.735-1.096-3.013-1.984-3.832
		c-0.889-0.819-2.103-1.229-3.643-1.229h-4.094v11.128h3.191v3.611h-10.33v-3.611h3.023v-24.586h-3.023V315.574z M946.834,319.206
		v10.015h6.109c0.798,0,1.529-0.105,2.194-0.315c0.664-0.21,1.238-0.525,1.722-0.945c0.482-0.42,0.86-0.941,1.134-1.564
		c0.272-0.623,0.409-1.347,0.409-2.173c0-1.582-0.476-2.813-1.428-3.695s-2.464-1.323-4.535-1.323H946.834z"/>
	<path fill="#EEEEEE" d="M969.111,336.528c0.014-1.722,0.29-3.289,0.829-4.703c0.539-1.414,1.291-2.628,2.258-3.643
		c0.965-1.015,2.113-1.795,3.443-2.341c1.329-0.546,2.792-0.819,4.388-0.819c1.609,0,3.083,0.273,4.42,0.819
		c1.336,0.546,2.48,1.319,3.433,2.32c0.952,1.001,1.693,2.208,2.226,3.622c0.532,1.414,0.798,2.981,0.798,4.703
		c0,1.694-0.266,3.251-0.798,4.672c-0.532,1.42-1.273,2.642-2.226,3.664c-0.952,1.022-2.097,1.816-3.433,2.383
		c-1.337,0.566-2.811,0.85-4.42,0.85c-1.638,0-3.121-0.28-4.451-0.84s-2.471-1.347-3.423-2.362
		c-0.951-1.015-1.693-2.229-2.225-3.643C969.398,339.796,969.125,338.236,969.111,336.528z M973.247,336.528
		c0,1.246,0.179,2.373,0.536,3.38c0.356,1.008,0.847,1.865,1.47,2.572c0.622,0.707,1.344,1.253,2.162,1.638
		c0.819,0.385,1.69,0.578,2.614,0.578c0.966,0,1.865-0.189,2.698-0.567c0.832-0.378,1.557-0.92,2.173-1.627
		c0.616-0.707,1.099-1.564,1.448-2.572c0.351-1.008,0.525-2.142,0.525-3.401c0-1.315-0.175-2.484-0.525-3.506
		c-0.35-1.021-0.829-1.875-1.438-2.562c-0.609-0.686-1.334-1.204-2.174-1.554c-0.84-0.35-1.742-0.525-2.708-0.525
		c-0.924,0-1.795,0.175-2.614,0.525c-0.818,0.35-1.54,0.868-2.162,1.554c-0.623,0.686-1.113,1.54-1.47,2.562
		C973.425,334.043,973.247,335.212,973.247,336.528z"/>
	<path fill="#EEEEEE" d="M994.832,336.528c0.014-1.722,0.29-3.289,0.829-4.703c0.539-1.414,1.291-2.628,2.258-3.643
		c0.965-1.015,2.113-1.795,3.443-2.341c1.329-0.546,2.792-0.819,4.388-0.819c1.609,0,3.083,0.273,4.42,0.819
		c1.336,0.546,2.48,1.319,3.433,2.32c0.952,1.001,1.693,2.208,2.226,3.622c0.532,1.414,0.798,2.981,0.798,4.703
		c0,1.694-0.266,3.251-0.798,4.672c-0.532,1.42-1.273,2.642-2.226,3.664c-0.952,1.022-2.097,1.816-3.433,2.383
		c-1.337,0.566-2.811,0.85-4.42,0.85c-1.638,0-3.121-0.28-4.451-0.84s-2.471-1.347-3.423-2.362
		c-0.951-1.015-1.693-2.229-2.225-3.643C995.119,339.796,994.845,338.236,994.832,336.528z M998.967,336.528
		c0,1.246,0.179,2.373,0.536,3.38c0.356,1.008,0.847,1.865,1.47,2.572c0.622,0.707,1.344,1.253,2.162,1.638
		c0.819,0.385,1.69,0.578,2.614,0.578c0.966,0,1.865-0.189,2.698-0.567c0.832-0.378,1.557-0.92,2.173-1.627
		c0.616-0.707,1.099-1.564,1.448-2.572c0.351-1.008,0.525-2.142,0.525-3.401c0-1.315-0.175-2.484-0.525-3.506
		c-0.35-1.021-0.829-1.875-1.438-2.562c-0.609-0.686-1.334-1.204-2.174-1.554c-0.84-0.35-1.742-0.525-2.708-0.525
		c-0.924,0-1.795,0.175-2.614,0.525c-0.818,0.35-1.54,0.868-2.162,1.554c-0.623,0.686-1.113,1.54-1.47,2.562
		C999.146,334.043,998.967,335.212,998.967,336.528z"/>
	<path fill="#EEEEEE" d="M1020.846,325.652h6.929v2.541h0.042c0.476-0.406,0.977-0.788,1.501-1.144
		c0.525-0.357,1.074-0.668,1.648-0.935c0.574-0.266,1.172-0.476,1.795-0.63c0.623-0.154,1.271-0.231,1.942-0.231
		c1.567,0,2.918,0.291,4.053,0.872c1.133,0.581,2.008,1.487,2.624,2.719c0.532-0.476,1.092-0.935,1.68-1.375
		c0.588-0.441,1.2-0.822,1.837-1.145c0.637-0.322,1.306-0.581,2.006-0.777c0.699-0.196,1.428-0.294,2.184-0.294
		c1.176,0,2.232,0.161,3.17,0.483c0.938,0.322,1.735,0.812,2.394,1.47c0.658,0.658,1.158,1.501,1.501,2.53
		c0.343,1.028,0.515,2.243,0.515,3.643v10.414h3.023v3.611h-10.162v-3.611h3.065v-9.931c0-1.666-0.42-2.929-1.26-3.79
		c-0.84-0.861-2.051-1.292-3.633-1.292c-0.938,0-1.896,0.224-2.876,0.672c-0.979,0.448-1.819,1.015-2.52,1.701v12.64h3.003v3.611
		h-10.142v-3.611h3.065v-9.931c0-1.666-0.424-2.929-1.271-3.79c-0.847-0.861-2.061-1.292-3.643-1.292
		c-0.91,0-1.827,0.217-2.751,0.651c-0.924,0.434-1.798,0.973-2.624,1.617v12.745h3.065v3.611h-10.162v-3.611h3.023v-14.529h-3.023
		V325.652z"/>
	<path fill="#CB2027" d="M587.964,388.855c1.892,0.316,3.403,1.176,4.536,2.58c1.133,1.405,1.699,3.139,1.699,5.203
		c0,1.29-0.237,2.473-0.71,3.548s-1.146,1.992-2.021,2.752c-0.875,0.759-1.921,1.347-3.14,1.763s-2.573,0.623-4.063,0.623
		c-2.179,0-4.085-0.437-5.719-1.311c-1.634-0.875-2.867-2.086-3.698-3.634l2.021-1.849c0.602,1.261,1.519,2.264,2.752,3.01
		c1.232,0.745,2.78,1.117,4.644,1.117c2.15,0,3.842-0.522,5.074-1.568c1.232-1.047,1.849-2.544,1.849-4.494
		c0-1.979-0.645-3.54-1.935-4.688c-1.29-1.146-3.154-1.719-5.59-1.719h-1.075v-2.494h1.161c2.207,0,3.898-0.509,5.074-1.527
		c1.175-1.017,1.763-2.344,1.763-3.977c0-0.86-0.158-1.619-0.473-2.279c-0.316-0.659-0.753-1.211-1.312-1.656
		c-0.56-0.443-1.219-0.78-1.979-1.01s-1.584-0.344-2.473-0.344c-1.634,0-3.074,0.365-4.321,1.096
		c-1.247,0.731-2.187,1.742-2.816,3.031l-1.892-1.805c0.344-0.746,0.831-1.426,1.462-2.043c0.63-0.616,1.347-1.14,2.149-1.57
		c0.803-0.43,1.691-0.766,2.666-1.01c0.975-0.243,1.979-0.365,3.01-0.365c1.318,0,2.53,0.187,3.634,0.559
		c1.104,0.373,2.057,0.896,2.859,1.569c0.803,0.674,1.426,1.483,1.871,2.43c0.443,0.946,0.666,1.993,0.666,3.14
		c0,0.859-0.129,1.684-0.387,2.472c-0.258,0.789-0.631,1.491-1.118,2.106c-0.487,0.617-1.082,1.133-1.784,1.549
		C589.648,388.477,588.853,388.742,587.964,388.855z"/>
	<path fill="#EEEEEE" d="M609.937,388.641v-2.709h12.556v2.709H609.937z"/>
	<path fill="#EEEEEE" d="M639.254,395.393h3.023v-24.586h-3.023v-3.675l14.32,0.042c1.287,0,2.498,0.242,3.632,0.725
		s2.12,1.141,2.96,1.973c0.84,0.834,1.502,1.816,1.984,2.951c0.483,1.133,0.725,2.352,0.725,3.652c0,1.358-0.378,2.598-1.134,3.717
		c-0.756,1.12-1.834,2.016-3.233,2.688c0.686,0.364,1.309,0.787,1.869,1.27c0.56,0.484,1.035,1.012,1.428,1.586
		c0.392,0.574,0.695,1.184,0.913,1.826c0.217,0.645,0.325,1.303,0.325,1.975c0,1.33-0.241,2.568-0.725,3.716
		c-0.482,1.147-1.145,2.149-1.984,3.003s-1.823,1.525-2.949,2.016c-1.127,0.49-2.334,0.734-3.622,0.734h-14.509V395.393z
		 M646.393,370.807v10.393h7.223c0.672,0,1.299-0.133,1.88-0.398c0.58-0.266,1.084-0.623,1.512-1.071
		c0.427-0.448,0.767-0.966,1.019-1.554s0.377-1.197,0.377-1.826c0-0.686-0.125-1.361-0.377-2.027
		c-0.252-0.664-0.596-1.256-1.029-1.773s-0.941-0.938-1.522-1.26s-1.2-0.482-1.858-0.482H646.393z M646.393,384.853v10.54h7.412
		c0.672,0,1.295-0.168,1.869-0.504c0.573-0.336,1.077-0.773,1.512-1.313c0.434-0.539,0.772-1.15,1.018-1.837
		c0.245-0.686,0.367-1.386,0.367-2.1c0-0.616-0.125-1.21-0.377-1.784s-0.592-1.085-1.019-1.533c-0.428-0.447-0.932-0.805-1.512-1.07
		c-0.581-0.266-1.2-0.399-1.858-0.399H646.393z"/>
	<path fill="#EEEEEE" d="M670.434,388.632c0,0.616,0.045,1.179,0.137,1.69c0.091,0.511,0.221,0.997,0.389,1.459
		c0.518,1.4,1.347,2.453,2.487,3.16s2.433,1.061,3.874,1.061c1.134,0,2.236-0.158,3.307-0.473c1.071-0.314,2.194-0.809,3.37-1.48
		l1.575,2.666c-1.428,0.98-2.863,1.709-4.305,2.184c-1.441,0.477-2.939,0.715-4.493,0.715c-1.47,0-2.831-0.246-4.084-0.735
		s-2.33-1.218-3.233-2.184c-0.902-0.966-1.609-2.169-2.12-3.611c-0.512-1.441-0.767-3.121-0.767-5.039
		c0-1.554,0.217-3.021,0.65-4.399c0.435-1.378,1.082-2.582,1.942-3.611c0.861-1.027,1.929-1.844,3.202-2.445
		s2.758-0.902,4.451-0.902c1.638,0,3.006,0.248,4.104,0.744c1.099,0.498,1.995,1.156,2.688,1.975
		c0.693,0.818,1.218,1.753,1.575,2.803c0.356,1.05,0.605,2.121,0.745,3.213c0.07,0.531,0.115,1.07,0.137,1.616
		c0.021,0.546,0.031,1.078,0.031,1.596H670.434z M676.543,379.961c-0.909,0-1.704,0.129-2.383,0.389
		c-0.679,0.258-1.256,0.629-1.732,1.111c-0.476,0.484-0.857,1.075-1.144,1.775c-0.287,0.699-0.501,1.483-0.641,2.352h11.274
		c-0.056-0.813-0.186-1.561-0.388-2.247c-0.203-0.686-0.515-1.28-0.935-1.784s-0.959-0.896-1.617-1.176
		C678.322,380.101,677.51,379.961,676.543,379.961z"/>
	<path fill="#EEEEEE" d="M707.051,381.85h-3.99v-1.344c-0.461,0-0.934,0.088-1.417,0.264c-0.482,0.174-0.935,0.439-1.354,0.797
		s-0.787,0.813-1.102,1.365c-0.315,0.553-0.543,1.207-0.683,1.963v10.498h3.695v3.611h-10.792v-3.611h3.002l0.021-14.529h-3.023
		v-3.611h6.949v3.002c0.252-0.447,0.536-0.863,0.851-1.248c0.315-0.386,0.665-0.722,1.05-1.008c0.385-0.287,0.812-0.512,1.281-0.672
		c0.469-0.162,0.977-0.242,1.521-0.242c0.729,0,1.414,0,2.059,0c0.644,0,1.287,0.014,1.932,0.042V381.85z"/>
	<path fill="#EEEEEE" d="M711.397,366.334h7.055v29.059h3.275v3.611h-10.33v-3.611h3.149v-25.447h-3.149V366.334z"/>
	<path fill="#EEEEEE" d="M725.38,377.252h7.097v18.141h3.275v3.611h-10.33v-3.611h3.107v-14.529h-3.149V377.252z M727.795,369.547
		c0-0.364,0.073-0.711,0.22-1.039c0.147-0.33,0.343-0.617,0.588-0.861c0.245-0.245,0.536-0.441,0.872-0.588s0.692-0.221,1.07-0.221
		c0.364,0,0.71,0.074,1.039,0.221s0.616,0.343,0.861,0.588c0.244,0.244,0.44,0.531,0.588,0.861c0.146,0.328,0.221,0.675,0.221,1.039
		c0,0.377-0.074,0.734-0.221,1.07c-0.147,0.336-0.344,0.633-0.588,0.893c-0.245,0.259-0.532,0.461-0.861,0.609
		c-0.329,0.146-0.675,0.22-1.039,0.22c-0.378,0-0.734-0.073-1.07-0.22c-0.336-0.148-0.627-0.351-0.872-0.609
		c-0.245-0.26-0.44-0.557-0.588-0.893C727.869,370.281,727.795,369.924,727.795,369.547z"/>
	<path fill="#EEEEEE" d="M753.662,395.393h3.065v-9.932c0-1.665-0.424-2.928-1.271-3.789s-2.061-1.291-3.643-1.291
		c-0.91,0-1.827,0.217-2.751,0.65s-1.798,0.973-2.624,1.617v12.744h3.065v3.611h-10.162v-3.611h3.023v-14.529h-3.023v-3.611h6.929
		v2.562h0.042c0.462-0.405,0.955-0.79,1.48-1.155c0.524-0.363,1.074-0.678,1.648-0.944c0.573-0.266,1.172-0.476,1.795-0.63
		c0.622-0.154,1.277-0.23,1.963-0.23c1.162,0,2.212,0.16,3.149,0.482s1.735,0.813,2.394,1.47c0.658,0.658,1.165,1.501,1.522,2.53
		c0.356,1.029,0.535,2.243,0.535,3.643v10.414h3.023v3.611h-10.162V395.393z"/>
	<path fill="#EEEEEE" d="M818.54,367.174h10.33v3.633h-2.771l-9.092,28.197h-6.424l-8.63-27.736l-7.958,27.736h-6.361l-9.28-28.197
		h-2.813v-3.633h10.33v3.633h-2.771l7.705,24.46l8.126-28.093h6.278l8.65,28.093l7.852-24.46h-3.17V367.174z"/>
	<path fill="#EEEEEE" d="M843.965,396.988c-0.825,0.77-1.739,1.4-2.739,1.89c-1.001,0.489-2.139,0.735-3.412,0.735
		c-1.063,0-2.04-0.168-2.929-0.504c-0.89-0.336-1.655-0.795-2.299-1.375c-0.645-0.582-1.145-1.257-1.502-2.027
		c-0.356-0.77-0.535-1.588-0.535-2.456c0-0.924,0.137-1.743,0.409-2.456c0.273-0.715,0.637-1.334,1.092-1.859
		c0.455-0.523,0.987-0.965,1.596-1.322c0.609-0.357,1.246-0.644,1.911-0.861c0.664-0.217,1.344-0.37,2.036-0.461
		c0.693-0.092,1.354-0.137,1.984-0.137c1.008,0,1.854,0.031,2.54,0.094c0.687,0.064,1.31,0.151,1.869,0.264l0.021-1.785
		c0-0.77-0.112-1.438-0.336-2.006c-0.225-0.566-0.539-1.035-0.945-1.406s-0.893-0.646-1.459-0.829c-0.567-0.182-1.2-0.272-1.9-0.272
		c-0.658,0-1.288,0.045-1.89,0.137c-0.602,0.09-1.165,0.209-1.69,0.355c-0.524,0.148-1.008,0.316-1.448,0.504
		c-0.441,0.189-0.815,0.389-1.124,0.6l-1.28-2.709c0.518-0.336,1.085-0.647,1.7-0.934c0.616-0.287,1.264-0.533,1.942-0.736
		c0.679-0.202,1.372-0.363,2.079-0.482c0.706-0.119,1.403-0.178,2.089-0.178c1.26,0,2.394,0.15,3.401,0.451s1.861,0.766,2.562,1.396
		c0.7,0.629,1.239,1.431,1.616,2.404c0.379,0.973,0.567,2.138,0.567,3.495l-0.021,10.876h2.414v3.611h-6.32V396.988z
		 M838.674,396.338c0.519,0,1.036-0.063,1.555-0.189c0.518-0.126,1.008-0.297,1.469-0.514c0.463-0.218,0.89-0.47,1.281-0.756
		c0.392-0.287,0.721-0.585,0.986-0.893l0.021-4.914h-4.535c-0.756,0-1.445,0.084-2.068,0.252s-1.162,0.414-1.616,0.735
		c-0.455,0.322-0.809,0.722-1.061,1.196c-0.252,0.477-0.378,1.022-0.378,1.639c0,0.574,0.105,1.074,0.314,1.5
		c0.211,0.428,0.508,0.785,0.893,1.072c0.385,0.286,0.844,0.504,1.375,0.65C837.443,396.264,838.031,396.338,838.674,396.338z"/>
	<path fill="#EEEEEE" d="M854.527,366.334h7.055v29.059h3.275v3.611h-10.33v-3.611h3.149v-25.447h-3.149V366.334z"/>
	<path fill="#EEEEEE" d="M868.51,366.334h7.055v29.059h3.275v3.611h-10.33v-3.611h3.149v-25.447h-3.149V366.334z"/>
	<path fill="#EEEEEE" d="M892.971,367.174h13.248c1.414,0,2.719,0.186,3.916,0.557c1.196,0.371,2.232,0.916,3.107,1.637
		c0.874,0.722,1.557,1.621,2.047,2.699s0.734,2.316,0.734,3.716c0,0.798-0.144,1.585-0.43,2.362
		c-0.287,0.777-0.687,1.498-1.197,2.162c-0.511,0.665-1.116,1.257-1.816,1.774c-0.699,0.519-1.462,0.917-2.288,1.196
		c0.35,0.154,0.703,0.375,1.061,0.662c0.356,0.287,0.692,0.637,1.008,1.049c0.314,0.414,0.602,0.883,0.86,1.408
		c0.259,0.523,0.466,1.088,0.619,1.689l1.764,6.929h2.751l0.042,3.989h-6.193l-2.373-9.68c-0.434-1.734-1.096-3.012-1.984-3.832
		c-0.889-0.818-2.103-1.228-3.643-1.228h-4.094v11.128h3.191v3.611h-10.33v-3.611h3.023v-24.586h-3.023V367.174z M900.11,370.807
		v10.015h6.109c0.798,0,1.529-0.104,2.194-0.315c0.664-0.209,1.238-0.524,1.722-0.944c0.482-0.42,0.86-0.941,1.134-1.563
		c0.272-0.623,0.409-1.348,0.409-2.174c0-1.582-0.476-2.813-1.428-3.695s-2.464-1.322-4.535-1.322H900.11z"/>
	<path fill="#EEEEEE" d="M922.386,388.128c0.014-1.722,0.29-3.289,0.829-4.703c0.539-1.413,1.291-2.628,2.258-3.644
		c0.965-1.014,2.113-1.795,3.443-2.34c1.329-0.547,2.792-0.819,4.388-0.819c1.609,0,3.083,0.272,4.42,0.819
		c1.336,0.545,2.48,1.318,3.433,2.32c0.952,1,1.693,2.207,2.226,3.621s0.798,2.981,0.798,4.703c0,1.693-0.266,3.251-0.798,4.672
		c-0.532,1.42-1.273,2.643-2.226,3.664s-2.097,1.816-3.433,2.383c-1.337,0.566-2.811,0.85-4.42,0.85
		c-1.638,0-3.121-0.279-4.451-0.84c-1.33-0.559-2.471-1.347-3.423-2.361c-0.951-1.016-1.693-2.229-2.225-3.643
		C922.673,391.396,922.4,389.836,922.386,388.128z M926.522,388.128c0,1.246,0.179,2.372,0.536,3.38
		c0.356,1.008,0.847,1.865,1.47,2.572c0.622,0.707,1.344,1.253,2.162,1.639c0.819,0.385,1.69,0.576,2.614,0.576
		c0.966,0,1.865-0.188,2.698-0.566c0.832-0.378,1.557-0.92,2.173-1.627s1.099-1.564,1.448-2.572
		c0.351-1.008,0.525-2.142,0.525-3.401c0-1.315-0.175-2.484-0.525-3.507c-0.35-1.021-0.829-1.875-1.438-2.561
		c-0.609-0.686-1.334-1.204-2.174-1.555c-0.84-0.35-1.742-0.524-2.708-0.524c-0.924,0-1.795,0.175-2.614,0.524
		c-0.818,0.351-1.54,0.869-2.162,1.555c-0.623,0.686-1.113,1.539-1.47,2.561C926.701,385.644,926.522,386.813,926.522,388.128z"/>
	<path fill="#EEEEEE" d="M948.107,388.128c0.014-1.722,0.29-3.289,0.829-4.703c0.539-1.413,1.291-2.628,2.258-3.644
		c0.965-1.014,2.113-1.795,3.443-2.34c1.329-0.547,2.792-0.819,4.388-0.819c1.609,0,3.083,0.272,4.42,0.819
		c1.336,0.545,2.48,1.318,3.433,2.32c0.952,1,1.693,2.207,2.226,3.621s0.798,2.981,0.798,4.703c0,1.693-0.266,3.251-0.798,4.672
		c-0.532,1.42-1.273,2.643-2.226,3.664s-2.097,1.816-3.433,2.383c-1.337,0.566-2.811,0.85-4.42,0.85
		c-1.638,0-3.121-0.279-4.451-0.84c-1.33-0.559-2.471-1.347-3.423-2.361c-0.951-1.016-1.693-2.229-2.225-3.643
		C948.394,391.396,948.121,389.836,948.107,388.128z M952.243,388.128c0,1.246,0.179,2.372,0.536,3.38
		c0.356,1.008,0.847,1.865,1.47,2.572c0.622,0.707,1.344,1.253,2.162,1.639c0.819,0.385,1.69,0.576,2.614,0.576
		c0.966,0,1.865-0.188,2.698-0.566c0.832-0.378,1.557-0.92,2.173-1.627s1.099-1.564,1.448-2.572
		c0.351-1.008,0.525-2.142,0.525-3.401c0-1.315-0.175-2.484-0.525-3.507c-0.35-1.021-0.829-1.875-1.438-2.561
		c-0.609-0.686-1.334-1.204-2.174-1.555c-0.84-0.35-1.742-0.524-2.708-0.524c-0.924,0-1.795,0.175-2.614,0.524
		c-0.818,0.351-1.54,0.869-2.162,1.555c-0.623,0.686-1.113,1.539-1.47,2.561C952.421,385.644,952.243,386.813,952.243,388.128z"/>
	<path fill="#EEEEEE" d="M974.122,377.252h6.929v2.541h0.042c0.476-0.406,0.977-0.787,1.501-1.145
		c0.525-0.357,1.074-0.668,1.648-0.935c0.574-0.266,1.172-0.476,1.795-0.63s1.271-0.23,1.942-0.23c1.567,0,2.918,0.29,4.053,0.871
		c1.133,0.58,2.008,1.487,2.624,2.719c0.532-0.476,1.092-0.934,1.68-1.375s1.2-0.822,1.837-1.145s1.306-0.58,2.006-0.777
		c0.699-0.195,1.428-0.293,2.184-0.293c1.176,0,2.232,0.16,3.17,0.482s1.735,0.813,2.394,1.47c0.658,0.658,1.158,1.501,1.501,2.53
		s0.515,2.243,0.515,3.643v10.414h3.023v3.611h-10.162v-3.611h3.065v-9.932c0-1.665-0.42-2.928-1.26-3.789s-2.051-1.291-3.633-1.291
		c-0.938,0-1.896,0.224-2.876,0.672c-0.979,0.447-1.819,1.015-2.52,1.7v12.64h3.003v3.611h-10.142v-3.611h3.065v-9.932
		c0-1.665-0.424-2.928-1.271-3.789s-2.061-1.291-3.643-1.291c-0.91,0-1.827,0.217-2.751,0.65s-1.798,0.973-2.624,1.617v12.744h3.065
		v3.611h-10.162v-3.611h3.023v-14.529h-3.023V377.252z"/>
	<path fill="#CB2027" d="M588.523,456.064v-7.653h-14.318v-2.58l15.265-19.78h1.979v19.694h3.783v2.666h-3.783v7.653H588.523z
		 M577.3,445.745h11.524v-15.093L577.3,445.745z"/>
	<path fill="#EEEEEE" d="M610.453,440.241v-2.709h12.556v2.709H610.453z"/>
	<path fill="#EEEEEE" d="M639.77,418.773h10.33v3.633h-3.191v24.586h10.981c0.224,0,0.448-0.053,0.672-0.156
		c0.224-0.105,0.427-0.242,0.608-0.41c0.183-0.168,0.329-0.36,0.441-0.578c0.112-0.217,0.168-0.437,0.168-0.66v-4.011h3.989v9.427
		H639.77v-3.611h3.023v-24.586h-3.023V418.773z"/>
	<path fill="#EEEEEE" d="M665.785,439.729c0.014-1.723,0.29-3.289,0.829-4.703s1.291-2.629,2.258-3.643
		c0.965-1.016,2.113-1.796,3.443-2.342c1.329-0.546,2.792-0.818,4.388-0.818c1.609,0,3.083,0.272,4.42,0.818
		c1.336,0.546,2.48,1.319,3.433,2.32c0.952,1,1.693,2.208,2.226,3.621c0.532,1.414,0.798,2.982,0.798,4.703
		c0,1.694-0.266,3.252-0.798,4.672c-0.532,1.421-1.273,2.643-2.226,3.664s-2.097,1.816-3.433,2.383
		c-1.337,0.566-2.811,0.851-4.42,0.851c-1.638,0-3.121-0.28-4.451-0.84s-2.471-1.347-3.423-2.362
		c-0.951-1.015-1.693-2.229-2.225-3.643C666.072,442.996,665.798,441.436,665.785,439.729z M669.92,439.729
		c0,1.246,0.179,2.372,0.536,3.38c0.356,1.008,0.847,1.865,1.47,2.571c0.622,0.707,1.344,1.254,2.162,1.639
		c0.819,0.385,1.69,0.577,2.614,0.577c0.966,0,1.865-0.188,2.698-0.567c0.832-0.377,1.557-0.92,2.173-1.627s1.099-1.564,1.448-2.572
		c0.351-1.008,0.525-2.141,0.525-3.4c0-1.316-0.175-2.484-0.525-3.507c-0.35-1.021-0.829-1.876-1.438-2.562
		c-0.609-0.686-1.334-1.203-2.174-1.554c-0.84-0.35-1.742-0.524-2.708-0.524c-0.924,0-1.795,0.175-2.614,0.524
		c-0.818,0.351-1.54,0.868-2.162,1.554c-0.623,0.686-1.113,1.54-1.47,2.562C670.099,437.244,669.92,438.412,669.92,439.729z"/>
	<path fill="#EEEEEE" d="M690.897,417.934h7.055v12.725c0.924-0.715,1.932-1.281,3.023-1.701s2.218-0.63,3.38-0.63
		c1.428,0,2.736,0.267,3.927,0.798c1.189,0.532,2.215,1.281,3.075,2.246c0.861,0.967,1.529,2.125,2.005,3.475
		c0.477,1.352,0.715,2.846,0.715,4.483c0,1.75-0.267,3.335-0.799,4.755c-0.531,1.422-1.27,2.643-2.215,3.664
		c-0.944,1.022-2.068,1.81-3.369,2.363c-1.303,0.553-2.73,0.828-4.283,0.828c-1.078,0-2.09-0.156-3.034-0.473
		c-0.945-0.314-1.753-0.724-2.425-1.228v1.364h-3.906v-29.059h-3.148V417.934z M703.327,431.771c-1.022,0-2.002,0.21-2.939,0.63
		c-0.938,0.42-1.75,0.986-2.436,1.701v11.694c0.447,0.462,1.105,0.872,1.973,1.228c0.868,0.357,1.96,0.536,3.275,0.536
		c0.896,0,1.757-0.168,2.583-0.504s1.554-0.843,2.184-1.522c0.63-0.679,1.134-1.521,1.512-2.529s0.567-2.184,0.567-3.527
		c0-1.232-0.179-2.324-0.536-3.275c-0.356-0.952-0.84-1.757-1.448-2.415c-0.609-0.657-1.319-1.158-2.131-1.501
		C705.118,431.941,704.25,431.771,703.327,431.771z"/>
	<path fill="#EEEEEE" d="M717.206,417.934h7.055v12.725c0.924-0.715,1.932-1.281,3.023-1.701s2.218-0.63,3.38-0.63
		c1.428,0,2.736,0.267,3.927,0.798c1.189,0.532,2.215,1.281,3.075,2.246c0.861,0.967,1.529,2.125,2.005,3.475
		c0.477,1.352,0.715,2.846,0.715,4.483c0,1.75-0.267,3.335-0.799,4.755c-0.531,1.422-1.27,2.643-2.215,3.664
		c-0.944,1.022-2.068,1.81-3.369,2.363c-1.303,0.553-2.73,0.828-4.283,0.828c-1.078,0-2.09-0.156-3.034-0.473
		c-0.945-0.314-1.753-0.724-2.425-1.228v1.364h-3.906v-29.059h-3.148V417.934z M729.635,431.771c-1.022,0-2.002,0.21-2.939,0.63
		c-0.938,0.42-1.75,0.986-2.436,1.701v11.694c0.447,0.462,1.105,0.872,1.973,1.228c0.868,0.357,1.96,0.536,3.275,0.536
		c0.896,0,1.757-0.168,2.583-0.504s1.554-0.843,2.184-1.522c0.63-0.679,1.134-1.521,1.512-2.529s0.567-2.184,0.567-3.527
		c0-1.232-0.179-2.324-0.536-3.275c-0.356-0.952-0.84-1.757-1.448-2.415c-0.609-0.657-1.319-1.158-2.131-1.501
		C731.426,431.941,730.559,431.771,729.635,431.771z"/>
	<path fill="#EEEEEE" d="M742.967,428.852h8.252v3.611h-2.582l5.102,13.879l5.333-13.879h-2.562v-3.611h8.252v3.611h-2.247
		l-9.679,24.419h2.98v3.611h-8.775v-3.611h2.645l2.311-5.983l-7.266-18.436h-1.764V428.852z"/>
</g>
</svg>
